<svg viewBox="0 0 1280 400" xmlns="http://www.w3.org/2000/svg">
<defs>
<linearGradient id="bg" x1="0" y1="0" x2="1" y2="1">
<stop offset="0%" stop-color="#0f172a"/>
<stop offset="100%" stop-color="#1e293b"/>
</linearGradient>
<linearGradient id="accent" x1="0" y1="0" x2="1" y2="0">
<stop offset="0%" stop-color="#3b82f6"/>
<stop offset="100%" stop-color="#2563eb"/>
</linearGradient>
</defs>
<rect width="1280" height="400" fill="url(#bg)" rx="12"/>
<g opacity="0.06">
<line x1="0" y1="80" x2="1280" y2="80" stroke="#fff" stroke-width="0.5"/>
<line x1="0" y1="160" x2="1280" y2="160" stroke="#fff" stroke-width="0.5"/>
<line x1="0" y1="240" x2="1280" y2="240" stroke="#fff" stroke-width="0.5"/>
<line x1="0" y1="320" x2="1280" y2="320" stroke="#fff" stroke-width="0.5"/>
<line x1="160" y1="0" x2="160" y2="400" stroke="#fff" stroke-width="0.5"/>
<line x1="320" y1="0" x2="320" y2="400" stroke="#fff" stroke-width="0.5"/>
<line x1="480" y1="0" x2="480" y2="400" stroke="#fff" stroke-width="0.5"/>
<line x1="640" y1="0" x2="640" y2="400" stroke="#fff" stroke-width="0.5"/>
<line x1="800" y1="0" x2="800" y2="400" stroke="#fff" stroke-width="0.5"/>
<line x1="960" y1="0" x2="960" y2="400" stroke="#fff" stroke-width="0.5"/>
<line x1="1120" y1="0" x2="1120" y2="400" stroke="#fff" stroke-width="0.5"/>
</g>
<g opacity="0.08">
<rect x="80" y="100" width="200" height="24" rx="4" fill="#3b82f6"/>
<rect x="80" y="136" width="320" height="16" rx="3" fill="#64748b"/>
<rect x="80" y="164" width="280" height="16" rx="3" fill="#64748b"/>
<rect x="80" y="200" width="160" height="20" rx="4" fill="#3b82f6" opacity="0.6"/>
<rect x="80" y="240" width="340" height="12" rx="2" fill="#475569"/>
<rect x="80" y="260" width="300" height="12" rx="2" fill="#475569"/>
<rect x="80" y="280" width="260" height="12" rx="2" fill="#475569"/>
</g>
<g opacity="0.05">
<rect x="900" y="80" width="300" height="240" rx="8" fill="#fff" stroke="#3b82f6" stroke-width="1"/>
<rect x="920" y="100" width="120" height="10" rx="2" fill="#3b82f6"/>
<rect x="920" y="120" width="260" height="8" rx="2" fill="#94a3b8"/>
<rect x="920" y="136" width="240" height="8" rx="2" fill="#94a3b8"/>
<rect x="920" y="160" width="260" height="8" rx="2" fill="#94a3b8"/>
<rect x="920" y="176" width="200" height="8" rx="2" fill="#94a3b8"/>
<circle cx="940" cy="210" r="6" fill="#3b82f6"/>
<rect x="956" y="204" width="140" height="12" rx="2" fill="#94a3b8"/>
<circle cx="940" cy="234" r="6" fill="#3b82f6"/>
<rect x="956" y="228" width="180" height="12" rx="2" fill="#94a3b8"/>
<circle cx="940" cy="258" r="6" fill="#22c55e"/>
<rect x="956" y="252" width="120" height="12" rx="2" fill="#94a3b8"/>
<rect x="920" y="286" width="80" height="24" rx="4" fill="#3b82f6" opacity="0.4"/>
</g>
<rect x="540" y="148" width="3" height="104" rx="1.5" fill="url(#accent)" opacity="0.4"/>
<text x="640" y="170" text-anchor="middle" font-family="-apple-system,BlinkMacSystemFont,'Segoe UI',system-ui,sans-serif" font-size="56" font-weight="700" fill="#f8fafc" letter-spacing="-2">TraceWP</text>
<text x="640" y="210" text-anchor="middle" font-family="-apple-system,BlinkMacSystemFont,'Segoe UI',system-ui,sans-serif" font-size="18" fill="#94a3b8" letter-spacing="0.5">Give AI the context it needs to help with your WordPress site</text>
<g transform="translate(470,250)">
<rect width="100" height="32" rx="6" fill="#3b82f6"/>
<text x="50" y="21" text-anchor="middle" font-family="-apple-system,BlinkMacSystemFont,'Segoe UI',system-ui,sans-serif" font-size="13" font-weight="500" fill="#fff">Export</text>
</g>
<g transform="translate(590,250)">
<rect width="100" height="32" rx="6" fill="none" stroke="#475569" stroke-width="1"/>
<text x="50" y="21" text-anchor="middle" font-family="-apple-system,BlinkMacSystemFont,'Segoe UI',system-ui,sans-serif" font-size="13" font-weight="500" fill="#94a3b8">Inspect</text>
</g>
<g transform="translate(710,250)">
<rect width="100" height="32" rx="6" fill="none" stroke="#475569" stroke-width="1"/>
<text x="50" y="21" text-anchor="middle" font-family="-apple-system,BlinkMacSystemFont,'Segoe UI',system-ui,sans-serif" font-size="13" font-weight="500" fill="#94a3b8">AI Chat</text>
</g>
<text x="640" y="320" text-anchor="middle" font-family="-apple-system,BlinkMacSystemFont,'Segoe UI',system-ui,sans-serif" font-size="12" fill="#64748b">Free and open source · WordPress plugin · GPL v2</text>
</svg>
